<?xml version="1.0" encoding="UTF-8" standalone="no"?>
<!-- Created with Inkscape (http://www.inkscape.org/) -->

<svg
   xmlns:dc="http://purl.org/dc/elements/1.1/"
   xmlns:cc="http://creativecommons.org/ns#"
   xmlns:rdf="http://www.w3.org/1999/02/22-rdf-syntax-ns#"
   xmlns:svg="http://www.w3.org/2000/svg"
   xmlns="http://www.w3.org/2000/svg"
   xmlns:sodipodi="http://sodipodi.sourceforge.net/DTD/sodipodi-0.dtd"
   xmlns:inkscape="http://www.inkscape.org/namespaces/inkscape"
   version="1.1"
   width="16"
   height="16"
   viewBox="0 0 16 16"
   id="svg2"
   xml:space="preserve"
   inkscape:version="0.48.3.1 r9886"
   sodipodi:docname="mymail-symbolic.svg"><sodipodi:namedview
   pagecolor="#ffffff"
   bordercolor="#666666"
   borderopacity="1"
   objecttolerance="10"
   gridtolerance="10"
   guidetolerance="10"
   inkscape:pageopacity="0"
   inkscape:pageshadow="2"
   inkscape:window-width="1920"
   inkscape:window-height="1054"
   id="namedview10"
   showgrid="false"
   inkscape:zoom="14.75"
   inkscape:cx="8"
   inkscape:cy="8"
   inkscape:window-x="0"
   inkscape:window-y="0"
   inkscape:window-maximized="1"
   inkscape:current-layer="svg2" /><metadata
   id="metadata17"><rdf:RDF><cc:Work
       rdf:about=""><dc:format>image/svg+xml</dc:format><dc:type
         rdf:resource="http://purl.org/dc/dcmitype/StillImage" /><dc:title /></cc:Work></rdf:RDF></metadata><defs
   id="defs15" />
  <g
   transform="matrix(0.04444432,0,0,0.04929273,-2.5431929,-3.7331089)"
   id="mail"
   style="fill:#bebebe;fill-opacity:1">
  	<path
   d="m 412.069,337.941 c 2.834,2.998 5.154,2.075 5.154,-2.05 V 137.86 c 0,-4.124 -2.57,-5.311 -5.711,-2.623 l -100.287,85.358 c -3.15,2.671 -3.4,7.312 -0.564,10.312 l 101.408,107.034 z"
   id="path5"
   style="fill:#bebebe;fill-opacity:1"
   inkscape:connector-curvature="0" />
  	<path
   d="m 398.077,117.112 c 3.148,-2.675 2.334,-4.862 -1.783,-4.862 H 75.559 c -4.116,0 -4.914,2.174 -1.747,4.814 L 231.42,249.266 c 3.171,2.641 8.327,2.627 11.467,-0.043 l 155.19,-132.111 z"
   id="path7"
   style="fill:#bebebe;fill-opacity:1"
   inkscape:connector-curvature="0" />
  	<path
   d="m 57.222,335.892 c 0,4.125 2.321,5.048 5.156,2.05 L 163.38,231.33 c 2.835,-2.999 2.571,-7.611 -0.595,-10.265 L 62.973,137.347 c -3.162,-2.658 -5.751,-1.441 -5.751,2.684 v 195.861 z"
   id="path9"
   style="fill:#bebebe;fill-opacity:1"
   inkscape:connector-curvature="0" />
  	<path
   d="m 250.231,272.517 c -3.141,2.675 -7.827,6.062 -10.416,7.546 0,0 0,0 -2.593,0 -2.571,0 -2.571,0 -2.571,0 -2.562,-1.45 -7.24,-4.794 -10.406,-7.451 l -32.687,-27.423 c -3.163,-2.653 -8.068,-2.373 -10.907,0.625 L 77.88,354.298 c -2.835,3.003 -1.782,5.453 2.343,5.453 h 314 c 4.125,0 5.182,-2.45 2.342,-5.453 L 293.506,245.516 c -2.836,-2.998 -7.729,-3.266 -10.869,-0.591 l -32.406,27.592 z"
   id="path11"
   style="fill:#bebebe;fill-opacity:1"
   inkscape:connector-curvature="0" />
  </g>
</svg>